<?xml version="1.0" standalone="no"?>
<!DOCTYPE svg PUBLIC "-//W3C//DTD SVG 20010904//EN"
 "http://www.w3.org/TR/2001/REC-SVG-20010904/DTD/svg10.dtd">
<svg version="1.0" xmlns="http://www.w3.org/2000/svg"
 width="3227.000000pt" height="827.000000pt" viewBox="0 0 3227.000000 827.000000"
 preserveAspectRatio="xMidYMid meet">

<g transform="translate(0.000000,827.000000) scale(0.100000,-0.100000)"
fill="#004C98" stroke="none">
<path d="M3895 8264 c-22 -2 -96 -9 -165 -15 -284 -25 -621 -96 -899 -189 -80
-27 -162 -56 -181 -64 l-35 -16 40 5 c120 15 273 26 510 36 500 21 1049 -18
1523 -107 866 -163 1455 -476 1603 -851 32 -82 33 -233 1 -314 -109 -277 -439
-510 -972 -690 -879 -295 -2092 -358 -3150 -163 -211 39 -409 90 -615 159
-321 107 -551 222 -733 369 -81 64 -86 67 -100 50 -48 -65 -189 -303 -258
-439 -238 -461 -379 -926 -440 -1450 -25 -207 -25 -690 -1 -895 95 -812 387
-1514 896 -2155 126 -159 463 -495 631 -629 467 -373 1019 -645 1593 -785 296
-73 553 -108 875 -118 l203 -6 -5 24 c-13 60 -28 157 -46 319 -115 1007 40
2056 428 2895 432 933 1094 1539 1859 1702 119 25 145 27 363 27 217 0 245 -2
360 -26 345 -74 683 -244 975 -491 55 -47 101 -84 102 -83 5 4 -18 243 -33
346 -189 1332 -999 2476 -2195 3099 -439 228 -917 373 -1444 437 -122 14 -597
27 -690 18z"/>
<path d="M17540 5685 l0 -985 180 0 180 0 0 985 0 985 -180 0 -180 0 0 -985z"/>
<path d="M22950 5685 l0 -985 180 0 180 0 2 328 3 327 246 -325 246 -325 221
-3 c122 -1 222 0 222 3 0 3 -122 159 -270 347 -264 333 -270 341 -253 361 10
11 123 135 250 276 l233 256 -207 3 c-114 1 -213 0 -219 -2 -7 -3 -115 -127
-241 -277 l-228 -272 -3 636 -2 637 -180 0 -180 0 0 -985z"/>
<path d="M27630 5685 l0 -985 180 0 180 0 0 985 0 985 -180 0 -180 0 0 -985z"/>
<path d="M9552 5883 c3 -619 5 -684 22 -743 30 -109 82 -205 147 -275 148
-158 365 -225 692 -212 398 15 614 157 709 469 22 72 22 81 26 756 l3 682
-196 0 -195 0 0 -577 c0 -596 -4 -658 -42 -761 -29 -79 -112 -161 -192 -191
-146 -55 -339 -33 -446 51 -41 32 -89 108 -112 178 -22 64 -22 78 -26 683 l-3
617 -195 0 -195 0 3 -677z"/>
<path d="M20700 6155 l0 -204 -87 -3 -88 -3 -3 -142 -3 -143 91 0 90 0 0 -480
0 -480 180 0 180 0 0 480 0 480 85 0 85 0 0 145 0 145 -85 0 -85 0 0 205 0
205 -180 0 -180 0 0 -205z"/>
<path d="M12195 5979 c-111 -23 -226 -104 -297 -209 -16 -24 -17 -22 -17 78
l-1 102 -172 -2 -173 -3 -3 -907 -2 -908 186 0 186 0 -4 363 -3 362 35 -40
c55 -61 81 -84 132 -110 147 -77 370 -73 514 10 113 64 217 210 261 365 25 92
26 386 0 480 -58 212 -183 350 -367 404 -69 21 -210 28 -275 15z m112 -314
c134 -56 209 -224 183 -412 -17 -124 -74 -213 -165 -258 -32 -16 -61 -20 -145
-20 -99 0 -108 2 -160 31 -63 35 -112 99 -135 177 -19 65 -20 218 0 283 31
105 115 189 210 213 51 13 166 5 212 -14z"/>
<path d="M13808 5980 c-106 -19 -218 -90 -280 -177 l-33 -45 -5 93 -5 94 -172
3 -173 2 0 -910 0 -910 181 0 180 0 -3 363 -3 362 66 -67 c97 -99 197 -138
357 -138 255 0 450 163 524 439 28 105 30 331 4 446 -48 216 -177 371 -353
425 -73 22 -217 33 -285 20z m118 -325 c122 -60 184 -194 171 -375 -9 -130
-60 -221 -156 -278 -36 -21 -61 -27 -130 -30 -103 -5 -156 8 -213 51 -84 64
-128 166 -128 294 0 194 85 324 237 363 61 15 160 4 219 -25z"/>
<path d="M14992 5970 c-197 -52 -319 -183 -330 -354 -12 -186 78 -284 357
-393 201 -78 260 -111 283 -155 38 -73 -10 -139 -116 -159 -116 -21 -228 24
-271 108 l-21 42 -124 -66 c-69 -36 -131 -68 -137 -72 -10 -5 -8 -16 8 -46 72
-136 231 -214 459 -222 258 -10 444 72 528 232 37 72 43 215 13 296 -41 109
-159 192 -378 265 -193 64 -263 113 -263 184 0 31 6 44 35 68 40 36 81 46 169
40 78 -5 135 -38 162 -96 l19 -39 132 65 131 66 -20 39 c-45 90 -164 172 -290
202 -90 21 -256 18 -346 -5z"/>
<path d="M16303 5979 c-215 -36 -359 -180 -424 -425 -29 -108 -31 -324 -5
-439 28 -125 87 -238 165 -316 103 -103 214 -149 362 -149 166 0 271 41 368
145 l61 66 0 -81 0 -80 175 0 175 0 0 625 0 625 -170 0 -170 0 0 -102 -1 -103
-22 30 c-125 171 -298 240 -514 204z m374 -324 c64 -32 115 -90 145 -164 18
-46 22 -76 22 -171 1 -105 -2 -120 -27 -175 -33 -70 -65 -107 -126 -143 -59
-34 -192 -43 -268 -18 -64 21 -127 76 -157 135 -69 136 -56 346 29 457 82 108
251 143 382 79z"/>
<path d="M18625 5975 c-199 -36 -349 -184 -412 -406 -26 -92 -26 -396 0 -488
57 -201 194 -359 355 -408 88 -28 288 -25 363 5 81 32 146 78 188 133 20 26
39 48 44 48 4 1 4 -35 1 -79 l-7 -80 177 0 176 0 0 625 0 625 -170 0 -170 0 0
-101 0 -101 -39 49 c-84 107 -169 160 -295 184 -63 12 -124 10 -211 -6z m356
-306 c30 -9 62 -31 101 -70 48 -48 60 -67 79 -128 30 -101 25 -251 -13 -331
-52 -112 -128 -161 -259 -168 -192 -10 -300 81 -330 277 -12 81 -2 189 25 251
65 155 220 221 397 169z"/>
<path d="M21905 5976 c-87 -18 -143 -38 -209 -76 -212 -122 -330 -363 -313
-640 8 -117 27 -194 72 -285 66 -137 179 -234 335 -289 82 -30 92 -31 245 -30
146 0 167 2 240 27 100 33 186 89 261 170 56 60 92 112 83 121 -15 14 -289
144 -289 137 0 -16 -79 -90 -118 -110 -134 -69 -328 -38 -406 64 -25 33 -66
129 -66 155 0 7 156 10 471 10 l472 0 -5 133 c-4 105 -11 148 -32 213 -62 194
-216 339 -411 389 -87 22 -246 27 -330 11z m285 -322 c67 -36 103 -88 124
-176 l6 -28 -285 0 -285 0 6 28 c21 91 91 170 174 197 73 24 196 14 260 -21z"/>
<path d="M25130 5979 c-88 -14 -209 -80 -284 -154 l-65 -64 -3 92 -3 92 -177
3 -178 2 0 -625 0 -625 179 0 179 0 4 373 c4 356 5 374 27 429 25 65 81 127
143 160 36 19 58 23 138 23 81 0 100 -3 131 -23 92 -56 100 -101 106 -574 l6
-388 178 0 179 0 0 423 c0 478 -7 563 -51 654 -78 162 -274 239 -509 202z"/>
<path d="M26525 5980 c-150 -24 -270 -85 -381 -195 -64 -63 -90 -98 -123 -165
-164 -335 -35 -735 289 -893 127 -62 225 -81 379 -74 199 9 325 62 457 192
133 132 182 244 191 436 4 89 2 134 -11 193 -53 235 -230 420 -466 485 -87 25
-247 34 -335 21z m248 -346 c60 -20 131 -84 165 -148 25 -47 27 -60 27 -166 0
-105 -2 -119 -27 -166 -28 -53 -87 -112 -136 -138 -83 -43 -225 -41 -319 5
-132 64 -196 251 -143 421 30 98 101 168 200 199 46 14 184 10 233 -7z"/>
<path d="M28852 5979 c-84 -13 -208 -59 -274 -103 -68 -45 -176 -156 -212
-219 -52 -88 -78 -182 -83 -303 -10 -207 49 -368 186 -505 86 -85 150 -125
266 -165 74 -26 92 -28 235 -29 145 0 161 2 244 29 206 68 370 234 430 436 10
30 20 100 23 155 12 203 -50 377 -180 507 -165 166 -381 233 -635 197z m284
-361 c59 -31 108 -83 138 -147 31 -67 30 -236 0 -302 -64 -137 -205 -206 -363
-179 -109 19 -189 79 -233 175 -19 42 -23 67 -23 155 0 130 22 188 97 255 69
62 112 75 233 72 85 -3 108 -7 151 -29z"/>
<path d="M30355 5984 c-11 -2 -45 -9 -75 -15 -179 -36 -327 -189 -387 -400
-25 -91 -26 -386 0 -478 70 -253 247 -409 487 -428 170 -13 297 34 405 149
l68 72 -5 -150 c-5 -119 -10 -161 -27 -206 -41 -108 -134 -155 -286 -146 -108
7 -159 33 -186 94 l-20 44 -196 0 -196 0 7 -47 c21 -156 138 -264 344 -315
119 -30 419 -32 527 -4 102 26 186 70 249 127 66 60 102 131 116 226 5 39 10
357 10 756 l0 687 -170 0 -170 0 0 -101 0 -101 -38 49 c-55 69 -107 112 -178
145 -84 39 -202 57 -279 42z m293 -319 c78 -23 131 -70 172 -149 31 -61 35
-78 38 -166 7 -176 -46 -288 -163 -345 -137 -67 -315 -30 -396 83 -45 63 -62
127 -62 237 0 147 41 239 136 307 64 46 183 60 275 33z"/>
<path d="M31560 5320 l0 -160 355 0 355 0 0 160 0 160 -355 0 -355 0 0 -160z"/>
<path d="M30241 3599 c-86 -28 -179 -117 -207 -199 -23 -70 -24 -169 0 -238
24 -70 100 -153 174 -189 49 -24 69 -28 142 -28 71 0 94 4 141 26 72 34 134
96 167 168 34 72 37 189 8 266 -26 66 -112 157 -177 185 -74 31 -169 35 -248
9z m194 -187 c41 -24 78 -96 72 -144 -15 -118 -144 -182 -241 -119 -46 31 -66
70 -66 131 0 127 122 196 235 132z"/>
<path d="M12380 2555 l0 -985 180 0 180 0 0 343 c0 202 4 368 11 403 12 67 42
125 91 171 113 109 333 102 395 -12 36 -66 43 -150 43 -537 l0 -368 180 0 181
0 -3 498 c-3 492 -3 498 -26 554 -60 150 -211 237 -408 238 -175 0 -323 -67
-444 -201 l-35 -38 3 459 3 460 -175 0 -176 0 0 -985z"/>
<path d="M28220 2555 l0 -985 180 0 180 0 0 327 c0 320 0 327 19 308 10 -11
123 -158 250 -327 l232 -308 224 0 225 0 -268 338 c-147 185 -271 343 -276
350 -5 8 75 103 238 282 135 148 246 272 246 275 0 3 -96 5 -213 5 l-213 0
-225 -269 c-123 -149 -227 -270 -231 -270 -5 -1 -8 283 -8 629 l0 630 -180 0
-180 0 0 -985z"/>
<path d="M18190 3025 l0 -205 -90 0 -90 0 0 -140 0 -140 90 0 90 0 0 -485 0
-485 180 0 180 0 0 485 0 485 85 0 85 0 0 140 0 140 -85 0 -85 0 0 205 0 205
-180 0 -180 0 0 -205z"/>
<path d="M24690 3025 l0 -205 -85 0 -85 0 0 -140 0 -140 85 0 85 0 0 -485 0
-485 180 0 180 0 2 483 3 482 88 3 87 3 0 139 0 140 -90 0 -90 0 0 205 0 205
-180 0 -180 0 0 -205z"/>
<path d="M9998 2850 c-145 -26 -248 -81 -359 -190 -140 -138 -193 -266 -193
-470 0 -204 52 -332 193 -470 96 -95 186 -147 308 -177 94 -23 295 -23 383 0
242 64 431 250 484 477 22 93 21 259 -3 352 -56 218 -214 383 -436 455 -65 20
-104 26 -205 29 -69 1 -146 -1 -172 -6z m259 -340 c142 -43 230 -206 202 -378
-26 -163 -130 -260 -291 -270 -137 -8 -237 34 -298 125 -41 63 -54 113 -54
208 -1 135 49 232 149 290 75 45 193 55 292 25z"/>
<path d="M11591 2849 c-252 -49 -439 -223 -501 -465 -27 -106 -27 -273 0 -378
32 -127 74 -201 165 -292 135 -137 262 -187 475 -188 135 -1 199 13 293 61
l50 25 -7 81 c-3 45 -6 129 -6 187 l0 104 -37 -36 c-76 -72 -183 -103 -305
-86 -115 15 -200 75 -248 173 -22 44 -25 63 -25 165 0 105 2 119 27 165 34 64
90 118 153 147 41 19 67 23 145 23 108 0 158 -15 236 -70 26 -19 49 -33 50
-32 0 1 4 80 7 175 l7 173 -54 25 c-30 14 -85 31 -123 39 -74 16 -232 18 -302
4z"/>
<path d="M15543 2845 c-113 -32 -185 -75 -270 -163 l-53 -55 0 97 0 96 -175 0
-175 0 0 -625 0 -625 179 0 180 0 3 388 c4 423 2 409 67 499 20 28 50 51 96
74 57 28 77 32 140 32 143 0 203 -58 225 -216 5 -43 10 -236 10 -428 l0 -349
181 0 180 0 -3 493 c-3 485 -4 493 -26 549 -45 111 -116 179 -228 220 -77 27
-254 35 -331 13z"/>
<path d="M16854 2845 c-144 -31 -274 -135 -338 -268 -61 -127 -71 -181 -71
-382 0 -161 2 -188 23 -255 36 -113 76 -183 148 -260 118 -125 276 -178 452
-153 135 20 187 45 275 135 l79 79 -7 -85 -7 -86 176 0 176 0 0 625 0 625
-170 0 -170 0 0 -101 0 -101 -43 58 c-48 66 -88 99 -162 136 -95 48 -234 61
-361 33z m414 -320 c104 -57 153 -148 160 -302 6 -144 -18 -225 -92 -299 -67
-66 -133 -89 -240 -82 -162 11 -260 106 -287 279 -22 145 20 292 108 369 61
53 117 71 218 67 66 -3 90 -8 133 -32z"/>
<path d="M21285 2847 c-133 -45 -223 -140 -281 -297 -11 -31 -13 -20 -13 118
l-1 152 -175 0 -175 0 0 -625 0 -625 179 0 180 0 3 348 c4 375 6 387 63 474
52 79 211 118 344 84 35 -9 66 -15 68 -13 7 8 56 377 50 383 -13 13 -203 14
-242 1z"/>
<path d="M23535 2844 c-110 -24 -206 -75 -291 -156 -136 -130 -193 -261 -202
-464 -14 -354 151 -599 458 -681 90 -24 300 -23 390 1 109 29 186 72 265 147
68 65 133 145 124 153 -2 2 -67 35 -144 73 l-140 70 -50 -52 c-64 -66 -136
-95 -236 -95 -93 0 -144 14 -200 55 -50 36 -95 112 -106 178 l-6 37 467 0 466
0 6 26 c9 37 -3 197 -21 271 -39 165 -154 312 -299 383 -135 67 -321 88 -481
54z m280 -300 c61 -21 118 -78 139 -139 31 -92 53 -85 -264 -85 -225 0 -280 3
-280 13 0 7 7 35 17 62 20 61 85 127 144 148 59 21 183 21 244 1z"/>
<path d="M25827 2844 c-232 -56 -373 -240 -407 -529 -40 -338 84 -632 311
-740 225 -106 501 -50 631 129 l28 39 0 -86 0 -87 175 0 175 0 0 625 0 625
-170 0 -170 0 -1 -102 c0 -100 -1 -102 -17 -78 -36 53 -124 138 -170 163 -102
55 -258 72 -385 41z m370 -299 c62 -19 136 -82 168 -144 70 -138 53 -356 -35
-463 -91 -110 -302 -129 -427 -39 -164 119 -164 468 0 601 69 55 194 75 294
45z"/>
<path d="M27765 2847 c-125 -42 -203 -119 -267 -266 l-29 -66 4 153 5 152
-179 0 -179 0 0 -625 0 -625 180 0 180 0 0 303 c0 387 13 468 86 541 65 65
201 92 324 63 36 -9 67 -12 70 -7 9 14 54 370 48 376 -14 13 -204 14 -243 1z"/>
<path d="M30050 2839 c-186 -48 -313 -186 -371 -404 -32 -115 -32 -365 -1
-478 31 -113 86 -211 162 -288 74 -75 142 -112 245 -134 205 -43 394 16 507
158 l38 49 0 -86 0 -86 175 0 175 0 0 625 0 625 -175 0 -175 0 0 -96 0 -96
-38 49 c-49 61 -102 107 -152 133 -103 52 -257 64 -390 29z m390 -295 c71 -21
149 -97 178 -176 50 -133 35 -306 -35 -408 -29 -41 -52 -62 -97 -85 -54 -27
-68 -30 -155 -30 -84 1 -102 4 -147 27 -103 54 -155 149 -162 298 -5 112 12
187 59 261 70 109 216 156 359 113z"/>
<path d="M32005 2847 c-133 -45 -221 -138 -281 -297 -12 -31 -13 -19 -11 118
l2 152 -177 0 -178 0 0 -625 0 -625 179 0 180 0 3 348 c4 375 6 387 63 474 52
79 211 118 344 84 35 -9 66 -14 68 -12 8 7 56 376 50 382 -13 13 -203 14 -242
1z"/>
<path d="M18982 2408 c4 -382 6 -419 26 -490 56 -203 167 -315 369 -370 113
-30 364 -30 476 0 201 55 313 168 373 377 15 51 18 120 22 478 l3 417 -180 0
-180 0 -3 -387 -3 -388 -26 -56 c-44 -94 -112 -130 -243 -130 -106 0 -153 15
-201 65 -67 70 -68 75 -72 509 l-4 387 -180 0 -181 0 4 -412z"/>
<path d="M21544 2805 c3 -8 117 -289 253 -625 l248 -610 181 0 180 0 254 618
c139 339 255 620 257 625 2 4 -89 6 -203 5 l-208 -3 -123 -370 c-67 -203 -128
-403 -135 -442 -11 -68 -28 -99 -28 -52 0 39 -30 143 -147 507 l-117 362 -209
0 c-180 0 -208 -2 -203 -15z"/>
</g>
</svg>
